<?xml version="1.0" standalone="no"?><!-- Generator: Gravit.io --><svg xmlns="http://www.w3.org/2000/svg" xmlns:xlink="http://www.w3.org/1999/xlink" style="isolation:isolate" viewBox="0 0 188 98" width="188" height="98"><defs><clipPath id="_clipPath_AyZoqA5Qs4XvinTJnoJEHDn2RQYhVJrJ"><rect width="188" height="98"/></clipPath></defs><g clip-path="url(#_clipPath_AyZoqA5Qs4XvinTJnoJEHDn2RQYhVJrJ)"><g id="Group"><path d=" M 50 57.999 C 50 63.522 45.523 67.999 40 67.999 C 34.477 67.999 30 63.522 30 57.999 C 30 52.476 34.477 47.999 40 47.999 C 45.523 47.999 50 52.476 50 57.999 Z  M 42 52.999 L 37 57.999 L 42 62.999 L 42 52.999 Z " fill="rgb(255,255,255)"/><path d=" M 60 57.999 C 60 63.522 64.477 67.999 70 67.999 C 75.523 67.999 80 63.522 80 57.999 C 80 52.476 75.523 47.999 70 47.999 C 64.477 47.999 60 52.476 60 57.999 Z  M 68 52.999 L 73 57.999 L 68 62.999 L 68 52.999 Z " fill="rgb(255,255,255)"/><path d=" M 20 57.999 C 20 52.476 15.523 47.999 10 47.999 C 4.477 47.999 0 52.476 0 57.999 C 0 63.522 4.477 67.999 10 67.999 C 15.523 67.999 20 63.522 20 57.999 Z  M 18 57.999 C 18 62.417 14.418 65.999 10 65.999 C 5.582 65.999 2 62.417 2 57.999 C 2 53.581 5.582 49.999 10 49.999 C 14.418 49.999 18 53.581 18 57.999 Z  M 12 52.999 L 7 57.999 L 12 62.999 L 12 52.999 Z " fill="rgb(255,255,255)"/><path d=" M 90 57.999 C 90 52.476 94.477 47.999 100 47.999 C 105.523 47.999 110 52.476 110 57.999 C 110 63.522 105.523 67.999 100 67.999 C 94.477 67.999 90 63.522 90 57.999 Z  M 92 57.999 C 92 62.417 95.582 65.999 100 65.999 C 104.418 65.999 108 62.417 108 57.999 C 108 53.581 104.418 49.999 100 49.999 C 95.582 49.999 92 53.581 92 57.999 Z  M 98 52.999 L 103 57.999 L 98 62.999 L 98 52.999 Z " fill="rgb(255,255,255)"/><path d=" M 135.175 65.632 L 127.542 57.999 L 135.175 50.349 L 132.825 47.999 L 122.825 57.999 L 132.825 67.999 L 135.175 65.632 Z " fill="rgb(255,255,255)"/><path d=" M 129 78 C 134.53 78 139 82.47 139 88 C 139 93.53 134.53 98 129 98 C 123.47 98 119 93.53 119 88 C 119 82.47 123.47 78 129 78 Z  M 132.59 83 L 129 86.59 L 125.41 83 L 124 84.41 L 127.59 88 L 124 91.59 L 125.41 93 L 129 89.41 L 132.59 93 L 134 91.59 L 130.41 88 L 134 84.41 L 132.59 83 Z " fill="rgb(139,139,139)"/><path d=" M 99 95.999 C 94.59 95.999 91 92.409 91 87.999 C 91 83.589 94.59 79.999 99 79.999 C 103.41 79.999 107 83.589 107 87.999 C 107 92.409 103.41 95.999 99 95.999 Z  M 99 77.999 C 93.47 77.999 89 82.469 89 87.999 C 89 93.529 93.47 97.999 99 97.999 C 104.53 97.999 109 93.529 109 87.999 C 109 82.469 104.53 77.999 99 77.999 Z  M 101.59 83.999 L 99 86.589 L 96.41 83.999 L 95 85.409 L 97.59 87.999 L 95 90.589 L 96.41 91.999 L 99 89.409 L 101.59 91.999 L 103 90.589 L 100.41 87.999 L 103 85.409 L 101.59 83.999 Z " fill="rgb(139,139,139)"/><path d=" M 72 80.999 L 72 84.999 L 62 84.999 L 62 94.999 L 66.35 94.999 C 65.5 94.269 65 93.189 65 91.999 C 65 89.79 66.791 87.999 69 87.999 C 71.209 87.999 73 89.79 73 91.999 C 73 93.189 72.5 94.269 71.65 94.999 L 76 94.999 L 76 83.829 L 73.17 80.999 L 72 80.999 Z  M 62 82.999 L 70 82.999 L 70 80.999 L 62 80.999 L 62 82.999 Z  M 74 78.999 L 78 82.999 L 78 94.999 C 78 96.104 77.105 96.999 76 96.999 L 62 96.999 C 60.89 96.999 60 96.099 60 94.999 L 60 80.999 C 60 79.894 60.895 78.999 62 78.999 L 74 78.999 Z  M 69 89.999 C 67.895 89.999 67 90.894 67 91.999 C 67 93.104 67.895 93.999 69 93.999 C 70.105 93.999 71 93.104 71 91.999 C 71 90.894 70.105 89.999 69 89.999 Z " fill="rgb(139,139,139)"/><path d=" M 10 95.999 C 5.59 95.999 2 92.409 2 87.999 C 2 83.589 5.59 79.999 10 79.999 C 14.41 79.999 18 83.589 18 87.999 C 18 92.409 14.41 95.999 10 95.999 Z  M 10 77.999 C 4.477 77.999 0 82.476 0 87.999 C 0 93.522 4.477 97.999 10 97.999 C 15.523 97.999 20 93.522 20 87.999 C 20 82.476 15.523 77.999 10 77.999 Z  M 11 82.999 L 9 82.999 L 9 86.999 L 5 86.999 L 5 88.999 L 9 88.999 L 9 92.999 L 11 92.999 L 11 88.999 L 15 88.999 L 15 86.999 L 11 86.999 L 11 82.999 Z " fill="rgb(139,139,139)"/><path d=" M 154 77.999 L 164 77.999 C 165.105 77.999 166 78.894 166 79.999 L 166 95.999 C 166 97.104 165.105 97.999 164 97.999 L 154 97.999 C 152.895 97.999 152 97.104 152 95.999 L 152 79.999 C 152 78.894 152.895 77.999 154 77.999 Z  M 154 79.999 L 154 83.999 L 164 83.999 L 164 79.999 L 154 79.999 Z  M 154 85.999 L 154 87.999 L 156 87.999 L 156 85.999 L 154 85.999 Z  M 158 85.999 L 158 87.999 L 160 87.999 L 160 85.999 L 158 85.999 Z  M 162 85.999 L 162 87.999 L 164 87.999 L 164 85.999 L 162 85.999 Z  M 154 89.999 L 154 91.999 L 156 91.999 L 156 89.999 L 154 89.999 Z  M 158 89.999 L 158 91.999 L 160 91.999 L 160 89.999 L 158 89.999 Z  M 162 89.999 L 162 91.999 L 164 91.999 L 164 89.999 L 162 89.999 Z  M 154 93.999 L 154 95.999 L 156 95.999 L 156 93.999 L 154 93.999 Z  M 158 93.999 L 158 95.999 L 160 95.999 L 160 93.999 L 158 93.999 Z  M 162 93.999 L 162 95.999 L 164 95.999 L 164 93.999 L 162 93.999 Z " fill="rgb(139,139,139)"/><g id="Group"><rect x="8" y="7.999" width="22" height="22" transform="matrix(1,0,0,1,0,0)" fill="none"/><path d=" M 18.71 26.664 C 16.93 26.664 15.5 25.254 15.5 23.524 C 15.5 21.904 16.53 20.764 18.3 20.404 C 20.07 20.044 21.9 19.194 22.92 17.824 C 23.31 19.114 23.5 20.474 23.5 21.864 C 23.5 24.504 21.36 26.664 18.71 26.664 Z  M 20.5 8.334 C 20.5 8.334 21.24 10.984 21.24 13.134 C 21.24 15.194 19.89 16.864 17.83 16.864 C 15.76 16.864 14.2 15.194 14.2 13.134 L 14.23 12.764 C 12.21 15.164 11 18.274 11 21.664 C 11 26.082 14.582 29.664 19 29.664 C 23.418 29.664 27 26.082 27 21.664 C 27 16.264 24.41 11.464 20.5 8.334 Z " fill="rgb(255,110,52)"/></g><g id="Group"><rect x="108" y="7.999" width="22" height="22" transform="matrix(1,0,0,1,0,0)" fill="none"/><path d=" M 119 12.999 C 122.314 12.999 125 15.685 125 18.999 C 125 21.219 123.79 23.159 122 24.199 L 122 25.999 C 122 26.551 121.552 26.999 121 26.999 L 117 26.999 C 116.448 26.999 116 26.551 116 25.999 L 116 24.199 C 114.21 23.159 113 21.219 113 18.999 C 113 15.685 115.686 12.999 119 12.999 Z  M 121 27.999 L 121 28.999 C 121 29.551 120.552 29.999 120 29.999 L 118 29.999 C 117.448 29.999 117 29.551 117 28.999 L 117 27.999 L 121 27.999 Z  M 127 17.999 L 130 17.999 L 130 19.999 L 127 19.999 L 127 17.999 Z  M 108 17.999 L 111 17.999 L 111 19.999 L 108 19.999 L 108 17.999 Z  M 120 7.999 L 120 10.999 L 118 10.999 L 118 7.999 L 120 7.999 Z  M 111.92 10.499 L 114.05 12.639 L 112.63 14.049 L 110.5 11.929 L 111.92 10.499 Z  M 123.95 12.629 L 126.07 10.499 L 127.5 11.929 L 125.37 14.049 L 123.95 12.629 Z " fill="rgb(255,179,65)"/></g><g id="Group"><rect x="158" y="7.999" width="22" height="22" transform="matrix(1,0,0,1,0,0)" fill="none"/><path d=" M 165 27.499 L 162 27.499 L 162 19.499 L 159 19.499 L 169 10.499 L 179 19.499 L 176 19.499 L 176 27.499 L 169 27.499 L 169 21.499 L 165 21.499 L 165 27.499 Z  M 171 21.499 L 171 24.499 L 174 24.499 L 174 21.499 L 171 21.499 Z " fill="rgb(63,176,165)"/></g><g id="Group"><rect x="58" y="7.999" width="22" height="22" transform="matrix(1,0,0,1,0,0)" fill="none"/><path d=" M 69 27.374 C 65.686 27.374 63 24.688 63 21.374 C 63 17.374 69 10.624 69 10.624 C 69 10.624 75 17.374 75 21.374 C 75 24.688 72.314 27.374 69 27.374 Z " fill="rgb(74,134,232)"/></g><path d=" M 45.805 84.694 C 46.065 84.434 46.065 84 45.805 83.754 L 44.245 82.194 C 43.999 81.934 43.565 81.934 43.305 82.194 L 42.079 83.414 L 44.579 85.913 M 34 91.499 L 34 93.999 L 36.5 93.999 L 43.872 86.62 L 41.372 84.12 L 34 91.499 Z " fill="rgb(139,139,139)"/></g></g></svg>